#!OML:ASF H:\Terrain\Patient Classification 1\Walking\steve\steve.ASF
:FULLY-SPECIFIED
:DEGREES
124
root 9.62731 16.3997 -1.62459 8.58274 -12.0014 -4.74401
lowerback 0.636014 4.31339 6.53108
upperback -2.91108 5.95131 1.64541
thorax -2.88462 2.82424 -2.09511
lowerneck -10.6523 -0.839195 -1.67101
upperneck 13.1445 -0.976602 0.7935
head 5.73569 -0.499215 0.444989
rclavicle 7.78987e-015 1.78906e-014
rhumerus -32.4383 14.6922 -89.7135
rradius 75.1697
rwrist -9.73686
rhand -22.8365 -35.575
rfingers 7.12502
rthumb 3.60101 -65.5243
lclavicle 7.78987e-015 1.78906e-014
lhumerus -48.2816 5.2406 83.1856
lradius 22.053
lwrist 17.3902
lhand -27.5099 -9.35303
lfingers 7.12502
lthumb -0.912607 20.6248
rfemur -1.25081 -4.91894 26.5351
rtibia 23.791
rfoot -6.53496 25.7161
rtoes 11.5105
lfemur -37.5203 2.38454 -13.0179
ltibia 23.3435
lfoot -19.9961 11.7534
ltoes -20.4792
125
root 9.64061 16.3933 -1.37009 8.86433 -12.5629 -5.58198
lowerback 0.669283 4.46676 7.32962
upperback -2.91879 6.18026 1.83205
thorax -2.83626 2.92078 -2.34262
lowerneck -10.6483 -0.746124 -1.44701
upperneck 13.0041 -0.843664 0.496813
head 5.68703 -0.445215 0.325753
rclavicle -7.90418e-014 -2.18663e-014
rhumerus -31.7362 15.9096 -89.5681
rradius 76.8457
rwrist -9.40294
rhand -22.8136 -35.6397
rfingers 7.12502
rthumb 3.62315 -65.5886
lclavicle -7.90418e-014 -2.18663e-014
lhumerus -49.3148 6.40283 81.9921
lradius 21.8464
lwrist 16.1643
lhand -25.3286 -5.00151
lfingers 7.12502
lthumb 1.19418 24.9749
rfemur 0.295544 -4.30049 26.9652
rtibia 22.3193
rfoot -5.59769 25.6771
rtoes 12.0668
lfemur -37.8424 1.27775 -11.0334
ltibia 21.3973
lfoot -20.9242 12.7933
ltoes -18.3262
126
root 9.64998 16.3765 -1.11321 9.09554 -13.0065 -5.9562
lowerback 0.686819 4.55192 7.59591
upperback -2.98136 6.30643 1.89564
thorax -2.88111 2.97417 -2.42724
lowerneck -10.5753 -0.650588 -1.19821
upperneck 12.7577 -0.714271 0.208185
head 5.59412 -0.390807 0.205109
rclavicle 7.07549e-014 -1.23246e-014
rhumerus -31.3068 16.8382 -89.4008
rradius 78.4662
rwrist -8.76473
rhand -23.3568 -36.7392
rfingers 7.12502
rthumb 3.0985 -66.6965
lclavicle 7.07549e-014 -1.23246e-014
lhumerus -50.5252 7.26037 81.1053
lradius 20.9019
lwrist 15.8898
lhand -26.5769 -7.28238
lfingers 7.12502
lthumb -0.0114662 22.6974
rfemur 1.64491 -3.86328 26.9492
rtibia 21.1105
rfoot -4.45354 25.6409
rtoes 13.5661
lfemur -38.128 0.251854 -9.72954
ltibia 19.6008
lfoot -21.729 13.4021
ltoes -16.2976
127
root 9.65828 16.3596 -0.846227 9.3076 -13.6033 -5.9732
lowerback 0.454809 4.75925 7.50209
upperback -2.98853 6.55561 1.82326
thorax -2.73569 3.10538 -2.43041
lowerneck -10.5076 -0.659208 -1.20882
upperneck 12.499 -0.745671 0.352451
head 5.50243 -0.395579 0.250088
rclavicle 7.76503e-015 1.47101e-014
rhumerus -30.7786 17.4139 -89.2383
rradius 79.7915
rwrist -8.84955
rhand -24.1317 -37.8436
rfingers 7.12502
rthumb 2.35016 -67.8104
lclavicle 7.76503e-015 1.47101e-014
lhumerus -51.5674 7.74276 80.4005
lradius 20.1576
lwrist 15.3555
lhand -28.7085 -8.9223
lfingers 7.12502
lthumb -2.07016 21.0474
rfemur 2.84884 -3.64664 26.4652
rtibia 20.0449
rfoot -2.91897 25.7461
rtoes 14.9193
lfemur -38.3906 -0.176525 -9.14615
ltibia 18.1852
lfoot -22.7505 14.0571
ltoes -15.9873
128
root 9.66343 16.3351 -0.583641 9.53037 -14.0617 -6.08064
lowerback 0.231084 4.91668 7.4861
upperback -2.98065 6.74073 1.77533
thorax -2.5803 3.20359 -2.44871
lowerneck -10.4315 -0.673595 -1.61672
upperneck 12.2618 -0.791754 1.00847
head 5.41995 -0.389953 0.518902
rclavicle 7.62836e-015 1.47101e-014
rhumerus -29.9967 18.0954 -89.0606
rradius 80.7224
rwrist -9.19446
rhand -24.5552 -36.9403
rfingers 7.12502
rthumb 1.94118 -66.9113
lclavicle 7.62836e-015 1.47101e-014
lhumerus -52.591 8.18149 79.7116
lradius 19.8798
lwrist 15.5826
lhand -30.2035 -10.6195
lfingers 7.12502
lthumb -3.514 19.3313
rfemur 3.95101 -3.15253 26.1902
rtibia 19.2555
rfoot -2.1043 25.4589
rtoes 13.9636
lfemur -38.6604 -0.248632 -8.68925
ltibia 16.9263
lfoot -23.4441 14.5736
ltoes -14.8158
129
root 9.6714 16.3065 -0.314604 9.70856 -14.4815 -6.28631
lowerback 0.111346 5.01552 7.59123
upperback -3.00146 6.86275 1.76676
thorax -2.51097 3.26379 -2.50293
lowerneck -10.4393 -0.598199 -1.83367
upperneck 12.181 -0.721694 1.49303
head 5.39744 -0.331348 0.711339
rclavicle 3.57191e-014 3.57812e-014
rhumerus -29.3426 18.9104 -88.8982
rradius 81.4572
rwrist -9.38388
rhand -24.4615 -35.4107
rfingers 7.12502
rthumb 2.0317 -65.3807
lclavicle 3.57191e-014 3.57812e-014
lhumerus -53.714 8.86167 78.8721
lradius 19.9046
lwrist 16.1374
lhand -29.1779 -10.6535
lfingers 7.12502
lthumb -2.52349 19.3114
rfemur 4.98529 -2.51866 26.0441
rtibia 18.8397
rfoot -1.73969 25.2005
rtoes 10.9569
lfemur -38.6734 -0.0788717 -8.3609
ltibia 15.6726
lfoot -22.9075 14.6664
ltoes -15.4151
130
root 9.67857 16.2917 -0.0394939 9.72175 -14.8522 -6.05317
lowerback 0.0203237 5.10382 7.22257
upperback -3.07198 6.96788 1.6511
thorax -2.54936 3.32152 -2.41705
lowerneck -10.5056 -0.512966 -1.51785
upperneck 12.3076 -0.650115 1.43872
head 5.44568 -0.285417 0.648305
rclavicle 1.83627e-014 -1.07344e-014
rhumerus -29.0272 19.415 -88.7386
rradius 81.9741
rwrist -9.4923
rhand -24.2238 -35.6351
rfingers 7.12502
rthumb 2.26118 -65.6029
lclavicle 1.83627e-014 -1.07344e-014
lhumerus -54.5787 9.49843 77.752
lradius 19.494
lwrist 15.8501
lhand -27.8438 -9.01761
lfingers 7.12502
lthumb -1.23502 20.9586
rfemur 6.02647 -2.12511 25.3764
rtibia 18.4417
rfoot -0.767855 25.0961
rtoes 9.0154
lfemur -38.5814 0.79962 -9.15736
ltibia 14.8763
lfoot -21.3829 14.1338
ltoes -20.1147
131
root 9.67325 16.2706 0.214168 9.55202 -14.9978 -5.55827
lowerback 0.232903 5.11334 6.38182
upperback -3.15878 6.98936 1.51991
thorax -2.8338 3.34147 -2.12497
lowerneck -10.6295 -0.517008 -1.29222
upperneck 12.4988 -0.687273 1.3993
head 5.52611 -0.295202 0.59623
rclavicle -3.71603e-014 -1.98785e-014
rhumerus -28.7054 19.5102 -88.668
rradius 82.1557
rwrist -9.55915
rhand -24.3331 -35.7606
rfingers 7.12502
rthumb 2.15565 -65.7294
lclavicle -3.71603e-014 -1.98785e-014
lhumerus -55.2343 10.2702 76.3272
lradius 18.7494
lwrist 14.8855
lhand -27.1461 -7.88537
lfingers 7.12502
lthumb -0.561158 22.0936
rfemur 7.10887 -1.44401 24.6856
rtibia 18.1036
rfoot -0.477683 24.3885
rtoes 5.87572
lfemur -38.5627 1.06327 -9.98835
ltibia 14.6384
lfoot -20.4088 13.5626
ltoes -22.6981
132
root 9.69119 16.2298 0.506826 9.55338 -15.1955 -5.51582
lowerback -0.160117 5.2386 6.44645
upperback -3.07229 7.11579 1.41142
thorax -2.49185 3.41468 -2.22457
lowerneck -10.4762 -0.633731 -1.3706
upperneck 12.2545 -0.847988 1.5149
head 5.42687 -0.369826 0.632798
rclavicle 2.69105e-014 3.10104e-014
rhumerus -28.4091 19.3111 -88.5314
rradius 82.2995
rwrist -9.43147
rhand -24.5454 -35.067
rfingers 7.12502
rthumb 1.95057 -65.0378
lclavicle 2.69105e-014 3.10104e-014
lhumerus -55.7998 11.0807 74.9523
lradius 18.2068
lwrist 13.7873
lhand -26.0313 -7.11227
lfingers 7.12502
lthumb 0.515475 22.8669
rfemur 8.20999 -1.38306 24.1223
rtibia 18.0455
rfoot 0.882077 24.4105
rtoes 6.7726
lfemur -38.4713 0.701025 -10.0398
ltibia 14.8956
lfoot -20.4582 12.8995
ltoes -20.3491
133
root 9.69662 16.1853 0.783647 9.46562 -15.2411 -5.53015
lowerback -0.253488 5.30062 6.33084
upperback -3.01922 7.18583 1.3877
thorax -2.38872 3.45667 -2.1732
lowerneck -10.3839 -0.749562 -1.28002
upperneck 11.9985 -1.01123 1.47
head 5.33323 -0.449247 0.591527
rclavicle -7.95511e-014 -4.96962e-014
rhumerus -28.3534 19.2345 -88.2358
rradius 82.4968
rwrist -9.24893
rhand -24.3081 -34.735
rfingers 7.12502
rthumb 2.17981 -64.7036
lclavicle -7.95511e-014 -4.96962e-014
lhumerus -56.3506 11.6732 73.8306
lradius 17.8444
lwrist 12.8805
lhand -25.3396 -6.54355
lfingers 7.12502
lthumb 1.18359 23.4329
rfemur 9.14821 -1.00483 23.8683
rtibia 18.2904
rfoot 2.94457 23.8021
rtoes 11.3027
lfemur -38.4307 1.57166 -10.8756
ltibia 15.5915
lfoot -19.3496 11.6193
ltoes -19.3559
134
root 9.69458 16.1415 1.03727 9.68716 -15.2271 -6.03455
lowerback -0.0896403 5.32807 6.47583
upperback -3.19619 7.25032 1.48655
thorax -2.65592 3.47428 -2.17836
lowerneck -10.6805 -0.805692 -1.03255
upperneck 12.2915 -1.12314 1.43483
head 5.47487 -0.493107 0.530589
rclavicle -1.23495e-014 2.38542e-015
rhumerus -28.5575 19.3084 -88.0835
rradius 82.677
rwrist -9.48406
rhand -24.0598 -34.1269
rfingers 7.12502
rthumb 2.41961 -64.0929
lclavicle -1.23495e-014 2.38542e-015
lhumerus -56.9701 12.3179 72.5295
lradius 17.4025
lwrist 12.0211
lhand -24.9339 -6.03835
lfingers 7.12502
lthumb 1.57537 23.9356
rfemur 9.56878 0.232361 24.5088
rtibia 18.781
rfoot 4.05766 22.1934
rtoes 12.6783
lfemur -38.8582 2.81816 -11.3161
ltibia 16.8467
lfoot -18.4314 9.70423
ltoes -17.8335
135
root 9.69995 16.1157 1.34177 9.23087 -15.4974 -5.66189
lowerback -0.187059 5.43188 6.04493
upperback -3.05497 7.36293 1.28558
thorax -2.46918 3.54796 -2.13157
lowerneck -10.514 -0.88458 -1.14145
upperneck 12.1777 -1.27582 1.8906
head 5.41685 -0.541276 0.679776
rclavicle 7.25564e-015 -1.23246e-014
rhumerus -29.0453 18.8585 -88.1171
rradius 83.0883
rwrist -10.0716
rhand -24.1746 -33.9853
rfingers 7.12502
rthumb 2.30869 -63.9526
lclavicle 7.25564e-015 -1.23246e-014
lhumerus -57.2803 12.7181 71.3744
lradius 16.7545
lwrist 11.4191
lhand -24.4519 -5.53222
lfingers 7.12502
lthumb 2.04088 24.4378
rfemur 10.4548 1.10666 23.8886
rtibia 19.6953
rfoot 4.80116 21.2076
rtoes 9.50561
lfemur -38.4 3.55417 -12.5248
ltibia 18.2963
lfoot -18.2584 8.01708
ltoes -16.9114
